<?xml version="1.0" encoding="utf-8"?>
<!-- Generator: Adobe Illustrator 23.0.1, SVG Export Plug-In . SVG Version: 6.00 Build 0)  -->
<svg version="1.1" id="圖層_1" xmlns="http://www.w3.org/2000/svg" xmlns:xlink="http://www.w3.org/1999/xlink" x="0px" y="0px"
	 viewBox="0 0 633 129" style="enable-background:new 0 0 633 129;" xml:space="preserve">
<style type="text/css">
	.st0{fill:#EEEEEF;}
	.st1{clip-path:url(#SVGID_4_);}
	.st2{fill-rule:evenodd;clip-rule:evenodd;fill:#B4B4B5;}
	.st3{fill:#F4F4F4;}
	.st4{clip-path:url(#SVGID_6_);}
	.st5{fill-rule:evenodd;clip-rule:evenodd;fill:#888888;}
	.st6{fill:#E50012;}
	.st7{fill-rule:evenodd;clip-rule:evenodd;fill:#E50012;}
	.st8{fill:#009844;}
	.st9{fill:#262626;}
</style>
<g>
	<g>
		<path id="SVGID_2_" class="st0" d="M339.8-246.7L339.8-246.7L339.8-246.7z"/>
	</g>
	<g>
		<g>
			<defs>
				<path id="SVGID_3_" d="M339.8-246.7L339.8-246.7L339.8-246.7z"/>
			</defs>
			<clipPath id="SVGID_4_">
				<use xlink:href="#SVGID_3_"  style="overflow:visible;"/>
			</clipPath>
			<g class="st1">
				<polygon class="st2" points="387.8,-295 387.8,-198.4 291.9,-198.4 				"/>
			</g>
		</g>
	</g>
</g>
<g>
	<g>
		<rect id="SVGID_1_" x="293.4" y="-288.6" class="st3" width="91.3" height="92"/>
	</g>
	<g>
		<g>
			<defs>
				<rect id="SVGID_5_" x="293.4" y="-288.6" width="91.3" height="92"/>
			</defs>
			<clipPath id="SVGID_6_">
				<use xlink:href="#SVGID_5_"  style="overflow:visible;"/>
			</clipPath>
			<g class="st4">
				<polygon class="st5" points="384.7,-288.6 384.7,-196.6 293.4,-196.6 				"/>
			</g>
		</g>
	</g>
</g>
<g>
	<rect x="295" y="-287" class="st0" width="88" height="88.7"/>
	<path class="st0" d="M339-242.6"/>
</g>
<g>
	<path class="st6" d="M37.2,60.6c12.7-12,61.3-13.9,90.7-23.8c10.4-3.5,22.8-17.7,36.8-21.5c33.2-9.1,79.4,0.7,110.9,16.1
		c11,5.3,30.7,19.5,36.2,31.5l-10.4,3c-8.7-10.2-17.8-20.2-29.1-26c-31.4-15.9-74.5-24.4-106.5-16.9c-14.1,3.3-11.5,10.4-30.9,17.6
		c-26.9,10-90.1,11.4-99.1,25.7c-0.9-0.6-1.6-1.9-1.6-1.9S35.5,62.2,37.2,60.6z"/>
	<polygon class="st7" points="269.8,50.2 313,44.2 315.8,28.8 	"/>
	<path class="st8" d="M45.7,90.4c0,9.3,6.9,16.9,15.4,16.9s15.4-7.6,15.4-16.9c0-9.3-6.9-16.9-15.4-16.9
		C52.6,73.5,45.7,81.1,45.7,90.4z M41,90.4c0-12.2,9-22,20.1-22s20.1,9.9,20.1,22c0,12.2-9,22-20.1,22C50,112.5,41,102.6,41,90.4z"
		/>
	<path class="st8" d="M74.9,109.9c0,1.4-1,2.6-2.3,2.6s-2.3-1.2-2.3-2.6v-16c0-1.4,1.1-2.6,2.3-2.6c1.3,0,2.3,1.2,2.3,2.6V109.9z"/>
	<path class="st8" d="M36,102.4c0.4-0.5,1-0.7,1.6-0.7c1.3,0,2.4,1.1,2.4,2.6c0,0.8-0.4,1.6-0.9,2c-3.6,3.9-8.5,6.3-14,6.3
		c-11.1,0-20.1-9.9-20.1-22c0-12.2,9-22,20.1-22c5.5,0,10.5,2.4,14.1,6.3c0.5,0.5,0.8,1.2,0.8,1.9c0,1.4-1.1,2.6-2.4,2.6
		c-0.7,0-1.4-0.4-1.8-0.9c-2.8-3-6.6-4.8-10.7-4.8c-8.5,0-15.4,7.6-15.4,16.9c0,9.3,6.9,16.9,15.4,16.9
		C29.4,107.4,33.2,105.5,36,102.4z"/>
	<path class="st8" d="M83.5,109.9V71c0-1.4,1-2.6,2.3-2.6c1.3,0,2.3,1.2,2.3,2.6v5.3c2.6-3.3,6-5.8,9.9-7c0.2-0.1,0.4-0.1,0.7-0.1
		c1.3,0,2.3,1.2,2.3,2.6c0,1.3-0.8,2.3-1.9,2.5c-6.1,2-10.6,8.2-10.9,15.5v20.2c0,1.4-1,2.6-2.3,2.6
		C84.6,112.5,83.5,111.3,83.5,109.9z"/>
	<path class="st8" d="M115.1,90.4c0,9.3,6.9,16.9,15.4,16.9s15.4-7.6,15.4-16.9c0-9.3-6.9-16.9-15.4-16.9
		C122,73.5,115.1,81.1,115.1,90.4z M110.4,90.4c0-12.2,9-22,20-22c11.1,0,20,9.9,20,22c0,12.2-9,22-20,22
		C119.4,112.5,110.4,102.6,110.4,90.4z"/>
	<path class="st8" d="M143.5,122.4c0,1.4-1,2.6-2.3,2.6c-1.3,0-2.3-1.1-2.3-2.6v-32c0-1.4,1.1-2.6,2.3-2.6c1.3,0,2.3,1.1,2.3,2.6
		V122.4z"/>
	<path class="st8" d="M201.1,90.4c0,9.3,6.9,16.9,15.4,16.9c8.5,0,15.4-7.6,15.4-16.9c0-9.3-6.9-16.9-15.4-16.9
		C208,73.5,201.1,81.1,201.1,90.4z M196.4,90.4c0-12.2,9-22,20.1-22c11.1,0,20.1,9.9,20.1,22c0,12.2-9,22-20.1,22
		C205.4,112.5,196.4,102.6,196.4,90.4z"/>
	<path class="st8" d="M230.3,109.9c0,1.4-1,2.6-2.3,2.6c-1.3,0-2.4-1.2-2.4-2.6v-16c0-1.4,1.1-2.6,2.4-2.6s2.3,1.2,2.3,2.6V109.9z"
		/>
	<path class="st8" d="M244.6,109.9c0,1.4-1.1,2.6-2.3,2.6c-1.3,0-2.4-1.2-2.4-2.6V58.4c0-1.4,1.1-2.6,2.4-2.6c1.3,0,2.3,1.2,2.3,2.6
		V109.9z"/>
	<path class="st8" d="M276.4,90.7c0,0,0-0.1,0-0.1V71c0-1.4,1-2.6,2.3-2.6c1.3,0,2.3,1.2,2.3,2.6v19.6c0.1,9.3,6.9,16.8,15.4,16.8
		c8.4,0,15.2-7.4,15.4-16.6l0-19.8c0-1.4,1.1-2.6,2.3-2.6c1.3,0,2.4,1.2,2.4,2.6v19.7c-0.2,12.1-9.1,21.8-20.1,21.8
		C285.4,112.5,276.5,102.8,276.4,90.7z"/>
	<path class="st8" d="M309.6,122.4c0,1.4-1,2.6-2.3,2.6c-1.3,0-2.3-1.1-2.3-2.6v-32c0-1.4,1.1-2.6,2.3-2.6c1.3,0,2.3,1.1,2.3,2.6
		V122.4z"/>
	<path class="st8" d="M153.5,90.7c0,0,0-0.1,0-0.1V71c0-1.4,1-2.6,2.3-2.6c1.3,0,2.3,1.2,2.3,2.6v19.6c0.1,9.3,6.9,16.8,15.4,16.8
		c8.4,0,15.2-7.4,15.4-16.6l0-19.8c0-1.4,1.1-2.6,2.4-2.6c1.3,0,2.3,1.2,2.3,2.6v19.7c-0.2,12.1-9.1,21.8-20.1,21.8
		C162.6,112.5,153.7,102.8,153.5,90.7z"/>
	<path class="st8" d="M267,109.9c0,1.4-1,2.6-2.4,2.6c-1.3,0-2.3-1.2-2.3-2.6V58.4c0-1.4,1.1-2.6,2.3-2.6c1.3,0,2.4,1.2,2.4,2.6
		V109.9z"/>
	<path class="st8" d="M273.1,63.3c1.3,0,2.4,1.2,2.4,2.6c0,1.4-1.1,2.6-2.4,2.6h-14.6c-1.3,0-2.4-1.1-2.4-2.6c0-1.4,1-2.6,2.4-2.6
		H273.1z"/>
	<path class="st8" d="M254.4,109.9c0,1.4-1,2.6-2.4,2.6c-1.3,0-2.3-1.2-2.3-2.6V71c0-1.4,1.1-2.6,2.3-2.6c1.3,0,2.4,1.2,2.4,2.6
		V109.9z"/>
	<g>
		<path class="st8" d="M249.7,58.5c0-1.4,1.1-2.6,2.3-2.6c1.3,0,2.4,1.1,2.4,2.6c0,1.4-1,2.6-2.4,2.6
			C250.8,61,249.7,59.9,249.7,58.5z"/>
		<path class="st8" d="M252,58.5"/>
	</g>
</g>
<g>
	<path class="st9" d="M363.3,110.5h-17.2v5.8h-5.3v-5.8h-16.7v-4.6h16.7v-2.3h-12.4V86.2h12.4v-2.1h-15.7v-4.7h15.7V76h5.3v3.5h16
		v4.7h-16v2.1h12.7v17.3h-12.7v2.3h17.2V110.5z M333.3,93h7.5v-2.6h-7.5V93z M340.8,99.4v-2.6h-7.5v2.6H340.8z M346.1,90.3V93h7.5
		v-2.6H346.1z M353.6,96.8h-7.5v2.6h7.5V96.8z"/>
	<path class="st9" d="M401.2,112.1c1.2,0,1.4-0.5,1.6-2.8c0.9,0.6,2.8,1.3,3.9,1.5c-0.4,3.9-1.6,5-5.1,5h-5.8c-4.7,0-5.9-1.1-5.9-5
		v-6.9h-9.3v1.9h8v3.4h-8v2.2l8.2-0.5c0,1.1,0,2.7,0,3.5c-10.5,0.9-12.1,1.1-13.2,1.6c-0.1-1.1-0.7-2.9-1.3-3.7
		c0.7-0.3,1.5-0.6,1.5-2.1v-6.3h-1.6c-0.5,4.4-1.8,9.1-4.4,12.6c-0.8-0.9-2.8-2.7-3.8-3.2c3.4-4.4,3.7-10.7,3.7-15.2v-7.2h14.5
		c-0.1-0.3-0.3-0.7-0.4-1h-2.9v-5.1h-4.4c1.3,0.9,2.8,2.2,3.6,3.1l-2.5,2.3c-0.7-0.9-2.2-2.5-3.5-3.4l2.3-2h-2.8v5.2h-4.4v-7.9h16.1
		v6.9l2.9-0.9l0,0.1v-6h16.4v7.9h-4.6v-5.1h-4.4c1.4,0.9,2.9,2.1,3.7,3.1l-2.4,2.3c-0.8-1-2.4-2.5-3.8-3.5l2.2-2h-2.7v5.2h-3.4
		c0.1,0.3,0.3,0.6,0.3,0.9h15.9v3.5h-11.2v1.6h10v8.2h-9.8v1.9h9.1v3.4h-9.1v1.6c0,1.2,0.3,1.4,1.8,1.4H401.2z M386.1,80.5h-17.7
		v-3.3h17.7V80.5z M374.6,98.9c0,0.6,0,1.2-0.1,1.9h5.4v-1.9H374.6z M374.6,94.2v1.6h5.3v-1.6H374.6z M389.9,94.2h-5.4v1.6h5.4V94.2
		z M389.9,98.9h-5.4v1.9h5.4V98.9z M405.7,80.5h-18v-3.3h18V80.5z M394.5,98.9v1.9h5.2v-1.9H394.5z"/>
	<path class="st9" d="M449.2,111.2v4.1h-31.5v-4.1h13.1v-3h-10.1v-4.1h10.1v-2.5c-6.8,0.5-8.3,0.7-9.4,1.1c-0.3-0.9-0.9-3.2-1.5-4.4
		c0.8-0.2,1.6-0.6,2.5-1.3c0.5-0.3,1.5-1.2,2.6-2.2h-5.9c-0.3,7-1.4,15.6-5,21.4c-1-0.8-3.3-2.2-4.6-2.6c4.1-6.6,4.5-16.3,4.5-23.2
		V77.9h33v10.9h-27.9v1.6v0.4h29.1v4h-6.8c2.5,1.9,5.3,4.4,6.8,6.1l-4.1,2.5c-0.6-0.7-1.4-1.6-2.3-2.5l-6.1,0.4v2.8h10.3v4.1h-10.3
		v3H449.2z M419.2,82.1v2.6h22.7v-2.6H419.2z M431.4,94.8c-1,1-2.2,2-3.3,2.9l9.7-0.5c-0.5-0.5-1.1-0.9-1.7-1.3l1.8-1.1H431.4z"/>
	<path class="st9" d="M460.1,96.3c-1.6-1.2-5-3-7.5-4.3l2.7-3.8c2.3,0.9,5.8,2.7,7.6,3.8L460.1,96.3z M454.1,112.1
		c2.1-3.2,5.1-8.4,7.5-13.3l3.9,3.3c-2,4.4-4.5,9.2-6.9,13.3L454.1,112.1z M462.5,85c-1.6-1.3-4.9-3.3-7.2-4.6l2.8-3.7
		c2.3,1.1,5.7,2.8,7.4,4.1L462.5,85z M470.4,87.2c-0.9,1.4-1.9,2.6-2.9,3.7c-0.9-0.9-3-2.5-4.1-3.1c3.1-2.8,5.9-7.3,7.4-11.8
		l4.9,1.3c-0.4,1-0.9,2.1-1.4,3.2h18.9v4.4h-21.2c-0.5,0.8-0.9,1.5-1.5,2.2h18.7v4.1h-18.8V87.2z M488.5,93.6
		c-0.1,10.5,0,17.9,1.5,17.9c0.5,0,0.7-2.3,0.7-5.5c0.9,1.1,2.1,2.4,3,3.2c-0.3,4.9-1.2,7.1-4.1,7.2c-5.2,0-5.9-7.2-6-18.2h-17.3
		v-4.5h20.1v0H488.5z"/>
	<path class="st9" d="M535.8,110.5h-17.2v5.8h-5.3v-5.8h-16.7v-4.6h16.7v-2.3h-12.4V86.2h12.4v-2.1h-15.7v-4.7h15.7V76h5.3v3.5h16
		v4.7h-16v2.1h12.7v17.3h-12.7v2.3h17.2V110.5z M505.9,93h7.5v-2.6h-7.5V93z M513.4,99.4v-2.6h-7.5v2.6H513.4z M518.6,90.3V93h7.5
		v-2.6H518.6z M526.2,96.8h-7.5v2.6h7.5V96.8z"/>
	<path class="st9" d="M562,83.1c-0.4,1.7-0.9,3.4-1.4,4.9h13.8v28.2H569v-2.6h-19.1v2.6h-5.2V88h10.5c0.3-1.6,0.6-3.2,0.8-4.9h-15.6
		v-5h37.9v5H562z M569,92.8h-19.1v5.7H569V92.8z M569,108.9v-5.8h-19.1v5.8H569z"/>
	<path class="st9" d="M590.1,85.4c-1.4,1-2.8,1.9-4.2,2.6c-0.8-1-2.5-2.9-3.6-3.7c4.6-2,9.4-5.2,12.2-8.7l4.6,1.7
		c-1.2,1.5-2.5,2.9-4.1,4.2v8.8h-4.9V85.4z M611.1,109c3.8,1.4,7.9,3.1,10.4,4.4l-4.4,2.8c-2.5-1.4-7-3.5-11.2-5l2.5-2.1h-12
		l3.8,1.7c-3.6,2.2-9.1,4.4-13.5,5.6c-0.9-1-2.7-2.9-3.8-3.8c4.1-0.8,8.8-2.1,11.8-3.6h-6.3V91.5h28.9V109H611.1z M593.3,96.4H612
		v-1.9h-18.7V96.4z M593.3,101.1H612v-1.9h-18.7V101.1z M593.3,106H612V104h-18.7V106z M608.1,90.4c-5.2,0-6.6-1.9-6.6-6.2v-8.1h5.2
		v2.9h12.9v4.1h-12.9v1.2c0,1.3,0.3,1.9,1.9,1.9h7.5c1.5,0,3.9-0.2,5-0.4c0.1,1.4,0.3,3,0.5,4.1c-1,0.3-3.2,0.4-5,0.4H608.1z"/>
</g>
</svg>
