<?xml version="1.0" encoding="utf-8"?>
<!-- Generator: Adobe Illustrator 23.0.1, SVG Export Plug-In . SVG Version: 6.00 Build 0)  -->
<svg version="1.1" id="圖層_1" xmlns="http://www.w3.org/2000/svg" xmlns:xlink="http://www.w3.org/1999/xlink" x="0px" y="0px"
	 viewBox="0 0 633 129" style="enable-background:new 0 0 633 129;" xml:space="preserve">
<style type="text/css">
	.st0{fill:#EEEEEF;}
	.st1{clip-path:url(#SVGID_4_);}
	.st2{fill-rule:evenodd;clip-rule:evenodd;fill:#B4B4B5;}
	.st3{fill:#F4F4F4;}
	.st4{clip-path:url(#SVGID_6_);}
	.st5{fill-rule:evenodd;clip-rule:evenodd;fill:#888888;}
	.st6{fill:#E50012;}
	.st7{fill-rule:evenodd;clip-rule:evenodd;fill:#E50012;}
	.st8{fill:#009844;}
	.st9{fill:#353535;}
</style>
<g>
	<g>
		<polygon id="SVGID_2_" class="st0" points="339.83,-246.69 339.83,-246.69 339.83,-246.69 		"/>
	</g>
	<g>
		<defs>
			<polygon id="SVGID_3_" points="339.83,-246.69 339.83,-246.69 339.83,-246.69 			"/>
		</defs>
		<clipPath id="SVGID_4_">
			<use xlink:href="#SVGID_3_"  style="overflow:visible;"/>
		</clipPath>
		<g class="st1">
			<polygon class="st2" points="387.77,-294.98 387.77,-198.41 291.9,-198.41 			"/>
		</g>
	</g>
</g>
<g>
	<g>
		<rect id="SVGID_1_" x="293.39" y="-288.6" class="st3" width="91.32" height="91.99"/>
	</g>
	<g>
		<defs>
			<rect id="SVGID_5_" x="293.39" y="-288.6" width="91.32" height="91.99"/>
		</defs>
		<clipPath id="SVGID_6_">
			<use xlink:href="#SVGID_5_"  style="overflow:visible;"/>
		</clipPath>
		<g class="st4">
			<polygon class="st5" points="384.71,-288.6 384.71,-196.61 293.39,-196.61 			"/>
		</g>
	</g>
</g>
<g>
	<rect x="295.03" y="-286.95" class="st0" width="88.04" height="88.69"/>
	<path class="st0" d="M339.05-242.61"/>
</g>
<g>
	<path class="st6" d="M38.96,56.19c13.42-12.6,64.61-14.7,95.55-25.07c10.95-3.66,24-18.64,38.83-22.62
		c35.03-9.54,83.64,0.74,116.88,17.02c11.57,5.57,32.38,20.51,38.17,33.21l-10.97,3.12c-9.17-10.71-18.79-21.33-30.69-27.37
		c-33.05-16.74-78.49-25.7-112.24-17.84c-14.91,3.46-12.12,10.91-32.59,18.53C113.54,45.76,46.98,47.16,37.4,62.29
		c-0.99-0.59-1.68-1.98-1.68-1.98S37.18,57.86,38.96,56.19z"/>
	<polygon class="st7" points="284.07,45.17 329.59,38.83 332.55,22.64 	"/>
	<path class="st8" d="M47.86,87.59c0,9.84,7.28,17.82,16.24,17.82s16.22-7.98,16.22-17.82c0-9.85-7.27-17.83-16.22-17.83
		C55.14,69.76,47.86,77.74,47.86,87.59z M42.97,87.59c0-12.83,9.46-23.23,21.14-23.23s21.14,10.4,21.14,23.23
		c0,12.82-9.47,23.23-21.14,23.23C52.43,110.83,42.97,100.42,42.97,87.59z"/>
	<path class="st8" d="M78.68,108.1c0,1.51-1.1,2.72-2.47,2.72s-2.46-1.22-2.46-2.72V91.22c0-1.5,1.11-2.71,2.46-2.71
		c1.36,0,2.47,1.22,2.47,2.71V108.1z"/>
	<path class="st8" d="M37.7,100.18c0.44-0.49,1.06-0.79,1.73-0.79c1.37,0,2.49,1.21,2.49,2.72c0,0.87-0.38,1.64-0.98,2.14
		c-3.8,4.08-8.99,6.59-14.72,6.59c-11.68,0-21.15-10.41-21.15-23.23c0-12.83,9.47-23.23,21.15-23.23c5.79,0,11.03,2.56,14.85,6.69
		c0.51,0.5,0.85,1.22,0.85,2.04c0,1.5-1.12,2.71-2.49,2.71c-0.75,0-1.43-0.37-1.9-0.97c-2.92-3.14-6.91-5.07-11.32-5.07
		c-8.96,0-16.23,7.98-16.23,17.83c0,9.84,7.28,17.82,16.23,17.82C30.71,105.42,34.76,103.42,37.7,100.18z"/>
	<path class="st8" d="M87.77,108.1V67.06c0-1.49,1.1-2.71,2.47-2.71c1.35,0,2.46,1.22,2.46,2.71v5.61c2.69-3.51,6.28-6.13,10.4-7.41
		c0.21-0.07,0.45-0.12,0.7-0.12c1.34,0,2.45,1.22,2.45,2.71c0,1.35-0.88,2.46-2.05,2.67c-6.45,2.15-11.21,8.59-11.5,16.3v21.27
		c0,1.51-1.1,2.72-2.46,2.72C88.87,110.82,87.77,109.6,87.77,108.1z"/>
	<path class="st8" d="M121.01,87.59c0,9.84,7.26,17.82,16.22,17.82s16.23-7.98,16.23-17.82c0-9.85-7.27-17.83-16.23-17.83
		C128.26,69.76,121.01,77.74,121.01,87.59z M116.09,87.59c0-12.83,9.46-23.23,21.13-23.23c11.68,0,21.13,10.4,21.13,23.23
		c0,12.82-9.45,23.23-21.13,23.23C125.55,110.83,116.09,100.42,116.09,87.59z"/>
	<path class="st8" d="M150.95,121.26c0,1.49-1.1,2.7-2.46,2.7c-1.37,0-2.47-1.21-2.47-2.7V87.53c0-1.51,1.11-2.71,2.47-2.71
		c1.35,0,2.46,1.21,2.46,2.71V121.26z"/>
	<path class="st8" d="M211.67,87.59c0,9.84,7.27,17.82,16.26,17.82c8.94,0,16.21-7.98,16.21-17.82c0-9.85-7.27-17.83-16.21-17.83
		C218.95,69.76,211.67,77.74,211.67,87.59z M206.75,87.59c0-12.83,9.45-23.23,21.18-23.23c11.66,0,21.14,10.4,21.14,23.23
		c0,12.82-9.48,23.23-21.14,23.23C216.21,110.83,206.75,100.42,206.75,87.59z"/>
	<path class="st8" d="M242.49,108.1c0,1.51-1.1,2.72-2.47,2.72c-1.36,0-2.48-1.22-2.48-2.72V91.22c0.01-1.5,1.11-2.71,2.48-2.71
		s2.47,1.22,2.47,2.71V108.1z"/>
	<path class="st8" d="M257.52,108.12c0,1.5-1.12,2.72-2.47,2.72c-1.36,0-2.48-1.22-2.48-2.72V53.87c0-1.49,1.13-2.71,2.48-2.71
		s2.47,1.22,2.47,2.71V108.12z"/>
	<path class="st8" d="M291,87.92c-0.02-0.05-0.02-0.1-0.02-0.15v-20.7c0-1.49,1.1-2.71,2.47-2.71c1.36,0,2.47,1.22,2.47,2.71v20.68
		c0.06,9.78,7.3,17.68,16.24,17.68c8.86,0,16.03-7.8,16.22-17.49l-0.03-20.87c0.03-1.49,1.12-2.71,2.47-2.71
		c1.36,0,2.49,1.22,2.49,2.71v20.76c-0.2,12.77-9.6,23-21.15,23C300.55,110.83,291.18,100.59,291,87.92z"/>
	<path class="st8" d="M325.99,121.27c0,1.49-1.1,2.7-2.47,2.7c-1.35,0-2.47-1.21-2.47-2.7V87.54c0-1.51,1.12-2.71,2.47-2.71
		c1.36,0,2.47,1.21,2.47,2.71V121.27z"/>
	<path class="st8" d="M161.53,87.92c-0.01-0.05-0.01-0.1-0.01-0.15v-20.7c0-1.49,1.1-2.71,2.46-2.71c1.37,0,2.47,1.22,2.47,2.71
		v20.68c0.07,9.78,7.32,17.68,16.23,17.68c8.86,0,16.04-7.8,16.21-17.49l-0.01-20.87c0-1.49,1.11-2.71,2.48-2.71
		c1.35,0,2.47,1.22,2.47,2.71v20.76c-0.2,12.77-9.57,23-21.15,23C171.1,110.83,161.69,100.59,161.53,87.92z"/>
	<path class="st8" d="M281.15,108.12c0,1.5-1.09,2.72-2.49,2.72c-1.35,0-2.47-1.22-2.47-2.72V53.87c0-1.49,1.14-2.71,2.47-2.71
		c1.39,0,2.49,1.22,2.49,2.71V108.12z"/>
	<path class="st8" d="M287.56,58.94c1.37,0,2.49,1.22,2.49,2.7c0,1.51-1.11,2.71-2.49,2.71h-15.34c-1.38,0-2.49-1.21-2.49-2.71
		c0-1.49,1.1-2.7,2.49-2.7H287.56z"/>
	<path class="st8" d="M267.85,108.12c0,1.5-1.1,2.72-2.48,2.72c-1.35,0-2.47-1.22-2.47-2.72V67.06c0-1.49,1.12-2.71,2.47-2.71
		c1.37,0,2.48,1.22,2.48,2.71V108.12z"/>
	<g>
		<path class="st8" d="M262.91,53.89c0-1.5,1.12-2.71,2.47-2.71c1.37,0,2.48,1.21,2.48,2.71c0,1.49-1.1,2.72-2.48,2.72
			C264.03,56.61,262.91,55.39,262.91,53.89z"/>
		<path class="st8" d="M265.37,53.89"/>
	</g>
</g>
<g>
	<path class="st9" d="M365.82,75.94v5.67h-4.59v7.71c1.53-0.34,3.18-1.02,5.05-1.64v6.13c-2.1,0.85-3.35,1.42-5.05,2.04v15.2
		c0,3.69-1.3,5.05-8.17,5.73c-0.57-2.27-1.53-5.05-2.84-7.43c3.35-0.23,4.37-0.17,4.37-2.27v-9.13c-0.91,0.4-1.93,0.91-2.78,1.25
		c-0.45,1.08-0.91,1.76-1.36,1.76c-0.34,0-0.74-0.51-1.08-1.7l-1.59-6.69c2.44-0.45,4.59-1.19,6.81-1.76v-9.19h-5.73v-5.67h5.73
		v-10.1h5.45c1.59,0,2.21,0.4,2.21,0.96c0,0.45-0.4,1.02-1.02,1.53v7.6H365.82z M366.89,89.26h26.71l2.44,2.78
		c-2.27,5.79-5.39,10.83-8.96,14.46c2.95,1.87,6.86,3.35,11.34,4.31c-1.42,2.27-2.38,4.03-3.63,6.18c-5.1-1.47-9.53-3.46-12.99-6.07
		c-3.8,2.78-8.28,4.93-13.44,6.41c-1.13-1.64-2.5-3.57-4.54-6.01c4.99-1.3,9.47-2.78,12.99-4.99c-2.61-2.95-4.76-6.92-6.18-11.4
		h-3.74V89.26z M388.96,66.58v11.91c-0.06,1.59,0.79,1.64,2.1,1.64c1.47,0,2.38-0.74,2.67-4.76c2.1,1.13,3.63,1.98,5.84,2.78
		c-1.08,7.71-3.63,8.51-9.07,8.51c-5.62,0-8.45-1.59-8.45-5.39v-9.02h-5.16c0,7.49-1.81,11.91-5.1,15.88
		c-1.13-1.02-3.46-2.5-5.96-3.97c2.72-3.12,4.54-6.47,4.54-12.36c0-1.53-0.11-3.29-0.4-5.22H388.96z M377.5,94.94
		c0.79,2.33,2.21,4.82,4.48,7.37c2.04-2.04,3.74-4.48,5.27-7.37H377.5z"/>
	<path class="st9" d="M446.92,109.12h-4.54c3.12,0.96,7.37,1.82,11.34,2.33c-1.7,2.1-2.95,3.86-4.14,5.56
		c-6.01-0.74-11.91-2.84-16.45-5.61l2.15-2.27h-10.95l1.3,1.36c0.96,1.02,1.36,1.7,1.36,2.16c0,0.51-0.45,0.68-1.13,0.68
		c-0.4,0-0.91-0.06-1.42-0.17c-3.97,1.42-9.3,3.29-15.65,3.57c-0.74-1.36-2.16-3.69-3.57-6.01c4.14-0.28,8.17-0.74,11-1.59h-3.97
		V87.11c-0.62,0.51-1.36,1.13-1.99,1.76c-0.06,1.13-0.4,1.87-0.91,1.87c-0.45,0-0.96-0.4-1.59-1.3l-3.4-4.48
		c3.86-2.33,7.94-5.39,11.74-9.24c1.47,1.81,2.33,2.95,3.74,4.48l-5.56,5.1h9.19c-0.85-1.19-1.76-2.33-2.95-3.86
		c6.07-1.02,11.17-3.23,13.44-8.05h-5.22c-1.36,1.59-2.55,3.12-4.2,4.54l-5.33-3.29c3.29-2.67,5.56-6.07,7.03-9.76l5.33,0.79
		c1.13,0.11,1.59,0.45,1.59,0.79c0,0.4-0.51,0.91-1.36,1.42h17.98l2.84,2.38c-0.85,3.06-1.98,6.24-3.18,8.85
		c-1.36-0.62-4.03-1.7-6.01-2.33c0.62-1.42,0.91-2.04,1.3-3.4h-3.74l-0.17,0.17c-0.17,0.34-0.28,0.68-0.68,1.53
		c2.78,3.06,7.2,6.18,14.12,7.37c-1.42,1.98-2.78,3.97-3.8,5.67c-1.19-0.34-2.33-0.79-3.57-1.3V109.12z M410.05,65.33
		c2.78,1.93,4.88,3.57,7.09,6.07c-1.7,1.59-3.35,3.12-4.54,4.42c-2.1-2.16-5.1-4.93-6.86-6.47L410.05,65.33z M440,89.95h-20.93v2.33
		H440V89.95z M440,96.18h-20.93v2.27H440V96.18z M440,102.37h-20.93v2.38H440V102.37z M443.74,85.29c-2.38-1.25-4.88-3.18-6.69-5.22
		c-2.04,2.27-4.42,3.86-7.49,5.22H443.74z"/>
	<path class="st9" d="M488.03,66.58c1.02,0,2.89-0.06,2.89,0.79c0,0.4-0.57,0.96-1.3,1.47c-0.17,4.54-0.28,8.39-0.57,12.25
		c4.37,15.54,13.67,24.33,23.08,29.15c-1.53,1.7-3.23,3.97-4.76,5.96c-9.13-6.35-16.73-14.24-20.42-22.52
		c-3.74,12.48-12.88,19.57-20.48,23.08c-0.96-1.42-2.38-3.12-4.82-5.9c16.28-6.58,21.04-17.41,21.04-38.34c0-1.76,0-3.74-0.06-5.96
		H488.03z"/>
	<path class="st9" d="M521.21,94.71c4.54,0.23,11.34,0.23,18.21,0.17v-2.27h-16.22V76.33h16.22v-2.33h-20.87v-4.59h20.87v-3.74h5.16
		c1.47,0,2.04,0.28,2.04,0.79c0,0.4-0.28,0.85-0.79,1.42v1.53h22.23v4.59h-22.23v2.33h16.96v14.92c2.1,1.87,4.2,4.03,5.9,6.52
		l-4.37,3.29c-0.85-0.91-1.47-1.81-2.1-2.21c-1.59,0.06-3.01,0.06-5.27,0.11v2.55h11.17v4.65h-11.17v5.56
		c0,2.5-0.62,4.03-10.38,4.82c-0.79-2.33-1.25-3.46-2.61-6.24c6.07,0.11,6.41-0.62,6.41-2.33v-1.82h-15.2
		c2.16,1.76,3.52,2.95,4.76,4.14l-5.39,4.25c-1.42-1.76-2.89-3.63-6.24-6.41l2.33-1.99h-12.25v-4.65h31.99v-2.38
		c-9.47,0.23-16.05,0.34-25.81,0.4c-0.51,0.79-0.96,1.19-1.3,1.19c-0.45,0-0.85-0.51-1.08-1.53L521.21,94.71z M529.94,80.36v2.27
		h9.47v-2.27H529.94z M529.94,88.58h9.47v-2.27h-9.47V88.58z M556.03,80.36h-10.21v2.27h10.21V80.36z M556.03,88.58v-2.27h-10.21
		v2.27H556.03z M558.92,94.65l-1.13-1.36l1.25-0.68h-13.22v2.21L558.92,94.65z"/>
	<path class="st9" d="M624.48,66.58v5.56h-42.31v36.41h42.76v5.5h-42.76v2.5h-6.58V66.58H624.48z M585.69,91.82h16.73v14.46h-16.73
		V91.82z M596.8,96.69h-5.5v4.76h5.5V96.69z M591.53,74.69h23.37v14.35h-23.37V74.69z M608.54,79.74h-10.66v4.25h10.66V79.74z
		 M604.57,91.82h17.47v14.46h-17.47V91.82z M616.43,96.69h-6.18v4.76h6.18V96.69z"/>
</g>
</svg>
